<svg xmlns="http://www.w3.org/2000/svg" width="214.899" height="186.109" viewBox="0 0 214.899 186.109">
  <g id="Gruppe_234" data-name="Gruppe 234" transform="translate(-11 -13)">
    <g id="Gruppe_82" data-name="Gruppe 82" transform="translate(11 13)">
      <path id="Pfad_112" data-name="Pfad 112" d="M301.828,502.884,299.706,551.4l44.268,38.2,20.225-1.323,29.442,45.228,4.3-49.059,70.041-6.064,22.741-43.359-1.516-53.365L447.065,447.4,337.3,457.4Z" transform="translate(-275.828 -447.396)" fill="#ccc"/>
      <path id="Pfad_113" data-name="Pfad 113" d="M264.769,515.546l-2.122,48.513,44.268,38.2,32.443-2.122L357.248,624.4l3.638-27.289,70.041-6.064,22.741-43.359-1.516-53.365-42.146-34.262L300.245,470.065Z" transform="translate(-262.647 -451.9)" fill="#f49403"/>
    </g>
    <g id="Gruppe_229" data-name="Gruppe 229" transform="matrix(0.999, -0.035, 0.035, 0.999, 40.515, 53.353)">
      <g id="Gruppe_227" data-name="Gruppe 227" transform="translate(0 5.123) rotate(-3)">
        <path id="Pfad_250" data-name="Pfad 250" d="M19.784,11.545a12.747,12.747,0,0,0-1.3-4.591,8.476,8.476,0,0,0-2.91-3.274,7.864,7.864,0,0,0-4.6-1.171,6.227,6.227,0,0,0-4.445,1.55,5.231,5.231,0,0,0-.546,7.013,10.389,10.389,0,0,0,2.976,2.372,44.7,44.7,0,0,0,4.22,2.1c1.266.531,2.554,1.128,3.849,1.8a20.487,20.487,0,0,1,3.572,2.27,9.777,9.777,0,0,1,2.554,3.048,8.731,8.731,0,0,1,.946,4.169,8.869,8.869,0,0,1-1.455,5,9.749,9.749,0,0,1-4.118,3.441,15.147,15.147,0,0,1-6.468,1.251,17.328,17.328,0,0,1-4.525-.648A16.733,16.733,0,0,1,3.2,34.011l.255,2.1H.4L.228,25.136h2.4A9.014,9.014,0,0,0,5.75,31.683,10.011,10.011,0,0,0,12.3,33.866a8.3,8.3,0,0,0,3.448-.728,5.82,5.82,0,0,0,2.444-2,5.224,5.224,0,0,0,.844-2.946,5.049,5.049,0,0,0-1.222-3.449,10.979,10.979,0,0,0-3.1-2.4q-1.877-1-3.921-1.9T6.82,18.551a19.278,19.278,0,0,1-3.47-2.3A9.669,9.669,0,0,1,.9,13.182,9.079,9.079,0,0,1,0,9.006,9.567,9.567,0,0,1,.5,6.06,8.5,8.5,0,0,1,2.2,3.15,8.643,8.643,0,0,1,5.474.88,13.511,13.511,0,0,1,10.69.007a19.222,19.222,0,0,1,4.271.546A12.062,12.062,0,0,1,19.282,2.5l-.2-2.1h2.976V11.589Z" transform="translate(0 2.008)" fill="#717070"/>
        <path id="Pfad_251" data-name="Pfad 251" d="M12.589,26.571A12.775,12.775,0,0,1,6.2,24.97,11.91,11.91,0,0,1,1.676,20.5,12.921,12.921,0,0,1,0,13.883,14.973,14.973,0,0,1,1.676,6.717,12.957,12.957,0,0,1,6.2,1.8,11.64,11.64,0,0,1,12.545,0a12.637,12.637,0,0,1,6.388,1.622,12.142,12.142,0,0,1,4.525,4.5,12.913,12.913,0,0,1,1.673,6.613,15.046,15.046,0,0,1-1.651,7.093,12.747,12.747,0,0,1-4.467,4.947A11.691,11.691,0,0,1,12.589,26.571Zm.364-2.51a5.093,5.093,0,0,0,3.769-1.5,8.4,8.4,0,0,0,1.972-3.725,18.364,18.364,0,0,0,.6-4.714,23.884,23.884,0,0,0-.371-4.22,15.182,15.182,0,0,0-1.171-3.776,7.523,7.523,0,0,0-2.1-2.721A4.722,4.722,0,0,0,12.5,2.431a5.224,5.224,0,0,0-3.82,1.455A8.476,8.476,0,0,0,6.5,7.611a17.045,17.045,0,0,0-.669,4.816,20.37,20.37,0,0,0,.728,5.595,10.368,10.368,0,0,0,2.321,4.365A5.231,5.231,0,0,0,12.953,24.061Z" transform="translate(28.017 11.959)" fill="#717070"/>
        <path id="Pfad_252" data-name="Pfad 252" d="M11.568,26.271a9.182,9.182,0,0,1-4.62-1.048,6.337,6.337,0,0,1-2.721-3.47,18.915,18.915,0,0,1-.9-6.417V5.718A12.724,12.724,0,0,1,3.5,3.892c-.567.036-1.164.065-1.8.08S.5,4.016,0,4.045V1.4H1.2A11.553,11.553,0,0,0,4.947.946,4.779,4.779,0,0,0,6.693,0h1.9V15.235a12.425,12.425,0,0,0,1.1,5.893,3.819,3.819,0,0,0,3.7,1.9,6.045,6.045,0,0,0,3.274-1,9.683,9.683,0,0,0,2.575-2.35V7.843q0-1.1.044-2.073a17.026,17.026,0,0,1,.2-1.877c-.6.036-1.215.065-1.848.08s-1.215.044-1.753.073V1.4h1.455A10.329,10.329,0,0,0,20.778.946,5.376,5.376,0,0,0,22.575,0h1.9l-.051,18.377c0,.538,0,1.259-.044,2.183s-.087,1.724-.153,2.423l1.775-.1c.611,0,1.186-.051,1.724-.051v2.648H19.781c-.065-.531-.124-1.033-.175-1.5s-.109-.917-.175-1.346a17.12,17.12,0,0,1-3.594,2.546A8.956,8.956,0,0,1,11.568,26.271Z" transform="translate(56.11 12.26)" fill="#717070"/>
        <path id="Pfad_253" data-name="Pfad 253" d="M.422,35.635a2.648,2.648,0,0,0,2.1-.728,3.492,3.492,0,0,0,.728-1.95c.08-.829.124-1.8.124-2.91V5.769c0-.582.058-1.208.124-1.877-.567,0-1.164.065-1.8.08s-1.2.044-1.7.073V1.4a22.044,22.044,0,0,0,3.572-.226A9.4,9.4,0,0,0,5.617.648,3.3,3.3,0,0,0,6.693,0H8.585V31.517c0,.6,0,1.208-.044,1.826s-.087,1.237-.153,1.87c.531,0,1.077-.058,1.622-.073s1.062-.044,1.528-.08v2.648H.422Z" transform="translate(86.339 0)" fill="#717070"/>
      </g>
      <g id="Gruppe_228" data-name="Gruppe 228" transform="translate(36.054 46.565) rotate(-3)">
        <path id="Pfad_259" data-name="Pfad 259" d="M25.4,10.969a10.181,10.181,0,0,0-2.859-6.38,8.665,8.665,0,0,0-6.126-2.277,9.457,9.457,0,0,0-4.423,1.04,10.738,10.738,0,0,0-3.5,2.976,14.222,14.222,0,0,0-2.277,4.511,19.163,19.163,0,0,0-.808,5.689A17.723,17.723,0,0,0,6.862,23.97a11.917,11.917,0,0,0,4.074,5.042,10.185,10.185,0,0,0,5.922,1.8,13.147,13.147,0,0,0,5.82-1.4,12.775,12.775,0,0,0,4.765-3.987l1.521,1.3a17.067,17.067,0,0,1-4.423,4.365,14.729,14.729,0,0,1-4.62,2.1,19.372,19.372,0,0,1-4.212.531A15.961,15.961,0,0,1,9.35,32.467a14.681,14.681,0,0,1-5-3.478A15.576,15.576,0,0,1,1.129,23.78,17.825,17.825,0,0,1,0,17.356a20.044,20.044,0,0,1,1.011-6.308,18.013,18.013,0,0,1,3-5.6,14.223,14.223,0,0,1,5-3.987A15.808,15.808,0,0,1,16.028,0a16.484,16.484,0,0,1,4.583.64,16.318,16.318,0,0,1,4.307,1.986L24.693.325h2.852V11.012Z" transform="translate(0 1.836)" fill="#fff"/>
        <path id="Pfad_260" data-name="Pfad 260" d="M15.365,32.834a2.532,2.532,0,0,0,1.957-.647,3.136,3.136,0,0,0,.728-1.8c.073-.771.109-1.659.109-2.67l-.044-6.453a10.528,10.528,0,0,0-1.128-5.456,3.841,3.841,0,0,0-3.638-1.775,7.436,7.436,0,0,0-2.976.728,7.915,7.915,0,0,0-2.415,1.753V29.043q0,.829-.044,1.681c0,.575-.08,1.149-.138,1.732l1.5-.073c.5,0,.975-.036,1.4-.065v2.437H.393V32.834a2.459,2.459,0,0,0,1.935-.648,3.347,3.347,0,0,0,.691-1.8,23.83,23.83,0,0,0,.138-2.67V5.318a16.463,16.463,0,0,1,.116-1.724q-.786.044-1.659.065c-.589,0-1.12.044-1.615.073V1.288a21.151,21.151,0,0,0,3.317-.2A8.972,8.972,0,0,0,5.231.6,3.136,3.136,0,0,0,6.22,0h1.7V13.918a13.411,13.411,0,0,1,2.255-1.455,14.631,14.631,0,0,1,2.561-1.033,8.6,8.6,0,0,1,2.466-.393q4.1,0,5.871,2.488T22.9,21.309v9.465a14.056,14.056,0,0,1-.16,1.731l1.521-.073c.517,0,1-.036,1.455-.065v2.437H15.365Z" transform="translate(31.088 0)" fill="#fff"/>
        <path id="Pfad_261" data-name="Pfad 261" d="M14.057,23.69c-.065-.487-.109-.917-.138-1.288s-.08-.728-.138-1.15a11.437,11.437,0,0,1-3.368,2.372,8.971,8.971,0,0,1-3.725.808,6.894,6.894,0,0,1-5-1.637A5.442,5.442,0,0,1,0,18.721a5.77,5.77,0,0,1,1.244-3.689A9.284,9.284,0,0,1,4.52,12.479a18.069,18.069,0,0,1,4.423-1.455,23.86,23.86,0,0,1,4.7-.48V7.823a13.021,13.021,0,0,0-.276-2.743,3.972,3.972,0,0,0-1.128-2.074A3.769,3.769,0,0,0,9.583,2.2a5.719,5.719,0,0,0-2.394.444A3.638,3.638,0,0,0,5.349,4.229a1.732,1.732,0,0,1,.48.851,3.791,3.791,0,0,1,.116.9,2.626,2.626,0,0,1-.553,1.455,2.022,2.022,0,0,1-1.884.728A1.986,1.986,0,0,1,1.82,7.437a2.91,2.91,0,0,1-.575-1.775,4.162,4.162,0,0,1,1.222-2.91A8.2,8.2,0,0,1,5.807.73,14.3,14.3,0,0,1,10.551,0c2.641,0,4.62.691,5.922,2.074S18.43,5.64,18.43,8.623v9.443c0,.466,0,.982-.051,1.572s-.073,1.193-.131,1.841l1.608-.095c.553,0,1.077-.044,1.564-.044v2.437Zm-.415-11.051a20.31,20.31,0,0,0-3.019.415,10.664,10.664,0,0,0-2.786.968A5.82,5.82,0,0,0,5.829,15.68,3.965,3.965,0,0,0,5.1,18.118a2.983,2.983,0,0,0,1.033,2.306,3.55,3.55,0,0,0,2.233.728,6.307,6.307,0,0,0,2.859-.618A10.572,10.572,0,0,0,13.672,18.8a9.6,9.6,0,0,1-.051-1.033V15.113c0-.749.022-1.586.022-2.474Z" transform="translate(59.482 11.086)" fill="#fff"/>
        <path id="Pfad_262" data-name="Pfad 262" d="M9.887,30.236a9.232,9.232,0,0,1-2.3-.3,5.159,5.159,0,0,1-2.183-1.2,5.887,5.887,0,0,1-1.542-2.6,15.177,15.177,0,0,1-.553-4.511L3.4,9.043H0V6.453a4.94,4.94,0,0,0,2.539-.924,8.309,8.309,0,0,0,2.255-2.35A9.336,9.336,0,0,0,6.126,0H8.308V6.453H15.4V8.847l-7.093.087-.095,12.3A13.575,13.575,0,0,0,8.519,24.3a4.053,4.053,0,0,0,1.011,2.03,2.649,2.649,0,0,0,1.957.728,4.439,4.439,0,0,0,2.183-.648,6.833,6.833,0,0,0,2.139-2.117l1.564,1.382a12.267,12.267,0,0,1-2.183,2.532,8.825,8.825,0,0,1-2.124,1.361,7.393,7.393,0,0,1-1.841.553A10.945,10.945,0,0,1,9.887,30.236Z" transform="translate(82.488 5.282)" fill="#fff"/>
      </g>
    </g>
  </g>
</svg>
