<svg xmlns="http://www.w3.org/2000/svg" width="100.347" height="86.904" viewBox="0 0 100.347 86.904">
  <g id="Gruppe_230" data-name="Gruppe 230" transform="translate(-11 -13)">
    <g id="Gruppe_82" data-name="Gruppe 82" transform="translate(-251.647 -434.396)">
      <path id="Pfad_112" data-name="Pfad 112" d="M300.7,473.306l-.991,22.653,20.671,17.84,9.444-.618L343.569,534.3l2.01-22.908,32.706-2.832L388.9,488.314,388.2,463.4l-19.68-16-51.253,4.672Z" transform="translate(-25.909 0)" fill="#ccc"/>
      <path id="Pfad_113" data-name="Pfad 113" d="M263.638,485.969l-.991,22.653,20.671,17.84,15.149-.991,8.353,11.327,1.7-12.742,32.706-2.832,10.619-20.246-.708-24.919-19.68-16L280.2,464.731Z" transform="translate(0 -8.853)" fill="#f49403"/>
    </g>
    <g id="Gruppe_229" data-name="Gruppe 229" transform="matrix(0.999, -0.035, 0.035, 0.999, -11.099, -5.632)">
      <g id="Gruppe_227" data-name="Gruppe 227" transform="translate(34.552 41.096) rotate(-3)">
        <path id="Pfad_250" data-name="Pfad 250" d="M9.238,5.391A5.952,5.952,0,0,0,8.63,3.247,3.958,3.958,0,0,0,7.271,1.719a3.672,3.672,0,0,0-2.147-.547A2.908,2.908,0,0,0,3.049,1.9,2.443,2.443,0,0,0,2.794,5.17,4.851,4.851,0,0,0,4.183,6.278a20.871,20.871,0,0,0,1.97.982c.591.248,1.192.527,1.8.839a9.566,9.566,0,0,1,1.668,1.06,4.566,4.566,0,0,1,1.192,1.423,4.077,4.077,0,0,1,.442,1.947,4.141,4.141,0,0,1-.679,2.334,4.552,4.552,0,0,1-1.923,1.607,7.073,7.073,0,0,1-3.02.584,8.091,8.091,0,0,1-2.113-.3,7.813,7.813,0,0,1-2.025-.87l.119.978H.188L.107,11.737H1.228a4.209,4.209,0,0,0,1.457,3.057,4.674,4.674,0,0,0,3.057,1.019,3.876,3.876,0,0,0,1.61-.34,2.718,2.718,0,0,0,1.141-.934,2.439,2.439,0,0,0,.394-1.376,2.358,2.358,0,0,0-.571-1.61A5.127,5.127,0,0,0,6.87,10.433q-.876-.465-1.831-.887T3.184,8.663a9,9,0,0,1-1.62-1.074A4.515,4.515,0,0,1,.423,6.155,4.24,4.24,0,0,1,0,4.205,4.468,4.468,0,0,1,.236,2.83a3.971,3.971,0,0,1,.792-1.359A4.036,4.036,0,0,1,2.556.411,6.309,6.309,0,0,1,4.992,0,8.976,8.976,0,0,1,6.986.258,5.633,5.633,0,0,1,9,1.168L8.909.19H10.3V5.411Z" transform="translate(0 0.938)" fill="#717070"/>
        <path id="Pfad_251" data-name="Pfad 251" d="M5.878,12.407A5.965,5.965,0,0,1,2.9,11.66,5.561,5.561,0,0,1,.783,9.574,6.034,6.034,0,0,1,0,6.483,6.992,6.992,0,0,1,.783,3.136,6.05,6.05,0,0,1,2.9.84,5.435,5.435,0,0,1,5.858,0,5.9,5.9,0,0,1,8.841.758a5.67,5.67,0,0,1,2.113,2.1,6.03,6.03,0,0,1,.781,3.088,7.026,7.026,0,0,1-.771,3.312,5.952,5.952,0,0,1-2.086,2.31A5.459,5.459,0,0,1,5.878,12.407Zm.17-1.172a2.378,2.378,0,0,0,1.76-.7A3.92,3.92,0,0,0,8.729,8.8a8.575,8.575,0,0,0,.279-2.2,11.153,11.153,0,0,0-.173-1.97,7.089,7.089,0,0,0-.547-1.763,3.513,3.513,0,0,0-.982-1.271,2.2,2.2,0,0,0-1.468-.455,2.439,2.439,0,0,0-1.784.679A3.958,3.958,0,0,0,3.035,3.554,7.959,7.959,0,0,0,2.722,5.8a9.512,9.512,0,0,0,.34,2.612,4.841,4.841,0,0,0,1.084,2.038A2.443,2.443,0,0,0,6.048,11.235Z" transform="translate(13.083 5.584)" fill="#717070"/>
        <path id="Pfad_252" data-name="Pfad 252" d="M5.4,12.267a4.287,4.287,0,0,1-2.157-.489,2.959,2.959,0,0,1-1.271-1.62,8.832,8.832,0,0,1-.421-3V2.67a5.941,5.941,0,0,1,.082-.853c-.265.017-.544.031-.839.037s-.561.02-.795.034V.652H.561A5.4,5.4,0,0,0,2.31.442,2.232,2.232,0,0,0,3.125,0h.887V7.114a5.8,5.8,0,0,0,.513,2.752,1.783,1.783,0,0,0,1.726.887,2.823,2.823,0,0,0,1.529-.465,4.521,4.521,0,0,0,1.2-1.1V3.662q0-.513.02-.968a7.95,7.95,0,0,1,.1-.876c-.282.017-.567.031-.863.037s-.567.02-.819.034V.652H8.1A4.823,4.823,0,0,0,9.7.442,2.51,2.51,0,0,0,10.541,0h.887L11.4,8.581c0,.251,0,.588-.02,1.019s-.041.805-.071,1.131l.829-.048c.285,0,.554-.024.805-.024V11.9H9.237c-.031-.248-.058-.482-.082-.7s-.051-.428-.082-.628A7.994,7.994,0,0,1,7.4,11.758,4.182,4.182,0,0,1,5.4,12.267Z" transform="translate(26.201 5.725)" fill="#717070"/>
        <path id="Pfad_253" data-name="Pfad 253" d="M.2,16.64a1.237,1.237,0,0,0,.978-.34,1.631,1.631,0,0,0,.34-.91c.037-.387.058-.839.058-1.359V2.694c0-.272.027-.564.058-.876-.265,0-.544.031-.839.037s-.561.02-.792.034V.652A10.294,10.294,0,0,0,1.668.547,4.388,4.388,0,0,0,2.623.3a1.542,1.542,0,0,0,.5-.3h.883V14.717c0,.279,0,.564-.02.853s-.041.578-.071.873c.248,0,.5-.027.758-.034s.5-.02.713-.037v1.237H.2Z" transform="translate(40.316 0)" fill="#717070"/>
      </g>
      <g id="Gruppe_228" data-name="Gruppe 228" transform="translate(51.387 60.448) rotate(-3)">
        <path id="Pfad_259" data-name="Pfad 259" d="M11.86,5.122a4.754,4.754,0,0,0-1.335-2.979,4.046,4.046,0,0,0-2.86-1.063A4.416,4.416,0,0,0,5.6,1.565,5.014,5.014,0,0,0,3.965,2.954,6.641,6.641,0,0,0,2.9,5.061a8.948,8.948,0,0,0-.377,2.657A8.276,8.276,0,0,0,3.2,11.193a5.565,5.565,0,0,0,1.9,2.354,4.756,4.756,0,0,0,2.765.839,6.139,6.139,0,0,0,2.718-.656,5.965,5.965,0,0,0,2.225-1.862l.71.6a7.969,7.969,0,0,1-2.066,2.038,6.878,6.878,0,0,1-2.157.982,9.046,9.046,0,0,1-1.967.248,7.453,7.453,0,0,1-2.969-.581,6.855,6.855,0,0,1-2.334-1.624A7.273,7.273,0,0,1,.527,11.1,8.323,8.323,0,0,1,0,8.1,9.36,9.36,0,0,1,.473,5.159a8.411,8.411,0,0,1,1.4-2.616A6.641,6.641,0,0,1,4.206.682,7.382,7.382,0,0,1,7.484,0a7.7,7.7,0,0,1,2.14.3,7.62,7.62,0,0,1,2.011.927L11.531.152h1.332V5.142Z" transform="translate(0 0.857)" fill="#fff"/>
        <path id="Pfad_260" data-name="Pfad 260" d="M7.175,15.332a1.182,1.182,0,0,0,.914-.3,1.464,1.464,0,0,0,.34-.839c.034-.36.051-.775.051-1.247L8.459,9.93a4.916,4.916,0,0,0-.527-2.548,1.794,1.794,0,0,0-1.7-.829,3.472,3.472,0,0,0-1.389.34,3.7,3.7,0,0,0-1.128.819v5.85q0,.387-.02.785c0,.268-.037.537-.065.809l.7-.034c.234,0,.455-.017.656-.031v1.138H.183v-.9a1.148,1.148,0,0,0,.9-.3,1.563,1.563,0,0,0,.323-.839,11.128,11.128,0,0,0,.065-1.247V2.483a7.688,7.688,0,0,1,.054-.805q-.367.02-.775.031c-.275,0-.523.02-.754.034V.6a9.877,9.877,0,0,0,1.549-.1A4.189,4.189,0,0,0,2.443.279,1.464,1.464,0,0,0,2.9,0H3.7V6.5a6.262,6.262,0,0,1,1.053-.679,6.832,6.832,0,0,1,1.2-.482A4.016,4.016,0,0,1,7.1,5.154,3.135,3.135,0,0,1,9.842,6.315a6.422,6.422,0,0,1,.849,3.635v4.42a6.564,6.564,0,0,1-.075.809l.71-.034c.241,0,.465-.017.679-.031v1.138H7.175Z" transform="translate(14.516 0)" fill="#fff"/>
        <path id="Pfad_261" data-name="Pfad 261" d="M6.564,11.062c-.031-.228-.051-.428-.065-.6s-.037-.34-.065-.537a5.34,5.34,0,0,1-1.573,1.108,4.189,4.189,0,0,1-1.739.377,3.219,3.219,0,0,1-2.334-.764A2.541,2.541,0,0,1,0,8.742,2.694,2.694,0,0,1,.582,7.02,4.335,4.335,0,0,1,2.11,5.827a8.437,8.437,0,0,1,2.065-.679,11.141,11.141,0,0,1,2.195-.224V3.653a6.08,6.08,0,0,0-.129-1.281A1.855,1.855,0,0,0,5.715,1.4a1.76,1.76,0,0,0-1.24-.377,2.671,2.671,0,0,0-1.118.207,1.7,1.7,0,0,0-.859.741.809.809,0,0,1,.224.4,1.77,1.77,0,0,1,.054.421,1.226,1.226,0,0,1-.258.679.944.944,0,0,1-.88.34.927.927,0,0,1-.788-.34,1.359,1.359,0,0,1-.268-.829,1.943,1.943,0,0,1,.571-1.359A3.828,3.828,0,0,1,2.712.341,6.676,6.676,0,0,1,4.927,0,3.631,3.631,0,0,1,7.692.969a4.346,4.346,0,0,1,.914,3.057v4.41c0,.217,0,.459-.024.734s-.034.557-.061.859l.751-.044c.258,0,.5-.02.73-.02V11.1ZM6.37,5.9a9.484,9.484,0,0,0-1.41.194,4.979,4.979,0,0,0-1.3.452,2.718,2.718,0,0,0-.938.775,1.851,1.851,0,0,0-.34,1.138,1.393,1.393,0,0,0,.482,1.077,1.658,1.658,0,0,0,1.043.34,2.945,2.945,0,0,0,1.335-.289,4.936,4.936,0,0,0,1.141-.809A4.484,4.484,0,0,1,6.36,8.3V7.057c0-.35.01-.741.01-1.155Z" transform="translate(27.775 5.176)" fill="#fff"/>
        <path id="Pfad_262" data-name="Pfad 262" d="M4.617,14.119a4.311,4.311,0,0,1-1.073-.139,2.409,2.409,0,0,1-1.019-.561A2.749,2.749,0,0,1,1.8,12.2,7.087,7.087,0,0,1,1.546,10.1L1.59,4.223H0V3.013a2.307,2.307,0,0,0,1.186-.431,3.88,3.88,0,0,0,1.053-1.1A4.359,4.359,0,0,0,2.86,0H3.88V3.013H7.192V4.131L3.88,4.172,3.835,9.916a6.339,6.339,0,0,0,.143,1.43,1.892,1.892,0,0,0,.472.948,1.237,1.237,0,0,0,.914.34,2.073,2.073,0,0,0,1.019-.3,3.191,3.191,0,0,0,1-.989l.73.645a5.728,5.728,0,0,1-1.019,1.182,4.121,4.121,0,0,1-.992.635,3.452,3.452,0,0,1-.859.258A5.111,5.111,0,0,1,4.617,14.119Z" transform="translate(38.518 2.466)" fill="#fff"/>
      </g>
    </g>
  </g>
</svg>
