<?xml version="1.0" standalone="no"?>
<!DOCTYPE svg PUBLIC "-//W3C//DTD SVG 20010904//EN"
 "http://www.w3.org/TR/2001/REC-SVG-20010904/DTD/svg10.dtd">
<svg version="1.0" xmlns="http://www.w3.org/2000/svg"
 width="800.000000pt" height="800.000000pt" viewBox="0 0 800.000000 800.000000"
 preserveAspectRatio="xMidYMid meet">
<metadata>
Created by potrace 1.14, written by Peter Selinger 2001-2017
</metadata>
<g transform="translate(0.000000,800.000000) scale(0.100000,-0.100000)"
fill="#000000" stroke="none">
<path d="M6307 7453 c-2 -1 -39 -5 -82 -8 -44 -2 -93 -7 -110 -9 -16 -2 -65
-7 -108 -11 -43 -3 -95 -8 -115 -10 -53 -5 -157 -14 -227 -20 -33 -3 -80 -8
-105 -10 -80 -7 -184 -17 -220 -20 -73 -5 -186 -16 -220 -20 -31 -4 -126 -12
-230 -20 -19 -2 -64 -6 -100 -10 -36 -3 -90 -8 -120 -10 -30 -2 -55 -4 -55 -5
0 -2 -100 -11 -275 -25 -30 -3 -73 -7 -95 -9 -22 -3 -76 -8 -120 -12 -44 -3
-96 -8 -115 -10 -19 -2 -60 -6 -90 -9 -97 -7 -194 -16 -235 -20 -67 -8 -157
-16 -210 -20 -27 -2 -77 -6 -110 -10 -33 -3 -87 -8 -120 -10 -33 -3 -76 -7
-95 -10 -19 -2 -71 -7 -115 -10 -44 -3 -96 -8 -115 -10 -74 -8 -157 -16 -215
-20 -33 -2 -60 -5 -60 -5 0 -1 -25 -3 -55 -5 -30 -2 -75 -7 -100 -9 -25 -3
-79 -8 -120 -11 -80 -7 -83 -9 -140 -84 -41 -53 -114 -145 -125 -156 -5 -6
-26 -11 -45 -12 -19 -1 -62 -4 -95 -8 -69 -6 -133 -12 -225 -20 -36 -3 -85 -8
-110 -11 -25 -3 -76 -7 -115 -10 -101 -6 -122 -12 -141 -42 -15 -23 -56 -76
-123 -157 -9 -11 -29 -38 -46 -60 -16 -22 -35 -47 -42 -55 -7 -8 -57 -72 -110
-141 -54 -69 -110 -141 -125 -160 -15 -19 -72 -92 -128 -164 -55 -71 -106
-137 -113 -145 -7 -8 -28 -35 -47 -60 -19 -25 -39 -50 -45 -56 -5 -6 -17 -22
-25 -34 -8 -12 -20 -28 -25 -34 -6 -6 -42 -51 -80 -101 -38 -49 -72 -92 -75
-95 -3 -3 -25 -32 -50 -65 -45 -61 -57 -76 -101 -129 -44 -54 -159 -207 -160
-214 0 -4 -2 -38 -4 -77 -5 -124 -16 -368 -20 -460 -4 -82 -11 -231 -20 -450
-4 -99 -15 -363 -20 -470 -2 -44 -6 -139 -10 -211 l-5 -132 35 -28 c20 -16 48
-40 63 -54 15 -14 54 -47 86 -75 33 -27 64 -55 70 -60 6 -6 43 -37 81 -70 39
-33 72 -62 75 -65 3 -3 37 -32 75 -65 39 -32 81 -69 95 -82 14 -13 36 -32 50
-44 48 -39 134 -114 152 -131 10 -10 18 -16 18 -14 0 3 12 -8 28 -22 29 -28
84 -77 172 -151 29 -25 58 -50 64 -56 14 -13 212 -184 244 -211 13 -10 34 -28
46 -39 12 -11 51 -45 86 -75 35 -30 95 -83 134 -116 l70 -62 61 4 c33 1 101 5
150 9 50 3 124 8 165 10 41 3 107 7 145 10 39 3 111 7 160 10 50 3 122 8 160
11 39 3 99 7 135 9 36 2 104 6 151 9 l85 6 55 -76 c30 -41 59 -81 64 -87 43
-53 75 -97 75 -106 0 -5 4 -11 8 -13 5 -2 47 -55 93 -118 46 -63 86 -117 89
-120 3 -3 21 -27 39 -55 19 -27 38 -52 41 -55 3 -3 17 -21 30 -40 14 -19 30
-42 37 -50 50 -63 113 -153 113 -161 0 -5 6 -9 13 -9 8 0 14 6 14 13 0 14 11
108 18 152 6 40 12 82 25 185 5 47 12 94 14 105 4 22 17 123 22 165 1 14 2 29
3 34 1 10 41 -28 41 -39 0 -3 42 -70 93 -148 52 -78 112 -171 134 -207 23 -36
48 -72 56 -82 8 -9 18 -25 22 -37 3 -12 11 -21 16 -21 5 0 9 -5 9 -11 0 -6 11
-25 25 -43 14 -18 25 -38 25 -44 0 -7 4 -12 8 -12 5 0 14 -10 21 -22 24 -47
92 -151 101 -158 4 -3 13 -16 20 -30 20 -37 200 -310 204 -310 3 0 5 8 5 18 0
9 2 44 5 77 3 33 8 89 11 125 3 36 8 85 10 110 3 25 7 74 10 110 3 36 8 90 10
120 11 116 13 137 20 215 10 117 14 162 20 235 3 36 7 85 9 110 3 25 7 77 11
115 3 39 8 88 10 110 3 22 7 76 10 120 7 93 9 113 16 119 2 2 36 7 74 10 39 4
93 9 120 11 28 3 82 8 120 11 39 3 88 8 110 9 22 2 69 6 105 9 36 2 90 7 120
10 30 4 82 8 115 11 33 2 87 7 120 10 83 7 158 14 240 20 39 4 90 8 115 11 25
2 74 6 110 9 36 2 90 7 120 10 30 3 82 7 115 10 160 13 148 7 191 93 21 42 46
89 56 104 10 14 18 33 18 40 0 8 6 15 13 15 14 0 144 11 207 18 25 2 81 7 125
11 79 6 103 8 220 18 210 18 225 21 225 50 0 6 9 22 20 36 11 14 20 32 20 41
0 9 7 22 15 29 8 7 15 21 15 31 0 11 4 19 8 19 5 0 16 17 25 38 9 20 57 114
107 207 49 94 107 204 128 245 20 41 39 77 42 80 3 3 19 32 35 65 15 33 31 62
34 65 3 3 33 59 66 125 33 66 62 122 65 125 3 3 31 57 64 120 32 63 86 167
120 230 l61 115 0 177 c0 98 -2 178 -5 178 -3 0 -6 64 -6 143 -1 78 -5 255 -9
392 -8 281 -11 403 -20 723 -10 391 -9 380 -31 400 -10 10 -91 76 -179 147
-88 71 -165 134 -171 140 -6 5 -23 19 -39 30 -15 11 -35 27 -44 36 -9 8 -52
44 -96 79 -44 36 -85 69 -92 75 -7 5 -18 15 -25 20 -7 6 -80 66 -163 133 -145
118 -172 140 -225 182 -14 12 -40 33 -58 48 -18 15 -45 37 -60 49 -79 64 -121
98 -157 128 -223 183 -240 195 -273 193 -18 -1 -34 -3 -35 -5z"/>
</g>
</svg>
